<?xml version="1.0" encoding="UTF-8" standalone="no"?>
<svg
   xmlns:dc="http://purl.org/dc/elements/1.1/"
   xmlns:cc="http://creativecommons.org/ns#"
   xmlns:rdf="http://www.w3.org/1999/02/22-rdf-syntax-ns#"
   xmlns:svg="http://www.w3.org/2000/svg"
   xmlns="http://www.w3.org/2000/svg"
   xmlns:sodipodi="http://sodipodi.sourceforge.net/DTD/sodipodi-0.dtd"
   xmlns:inkscape="http://www.inkscape.org/namespaces/inkscape"
   id="Layer_1"
   data-name="Layer 1"
   viewBox="0 0 154.11 154.13"
   version="1.1"
   sodipodi:docname="app 01.mat.svg"
   inkscape:version="0.92.4 5da689c313, 2019-01-14">
  <metadata
     id="metadata77">
    <rdf:RDF>
      <cc:Work
         rdf:about="">
        <dc:format>image/svg+xml</dc:format>
        <dc:type
           rdf:resource="http://purl.org/dc/dcmitype/StillImage" />
        <dc:title>app 01</dc:title>
      </cc:Work>
    </rdf:RDF>
  </metadata>
  <sodipodi:namedview
     pagecolor="#ffffff"
     bordercolor="#666666"
     borderopacity="1"
     objecttolerance="10"
     gridtolerance="10"
     guidetolerance="10"
     inkscape:pageopacity="0"
     inkscape:pageshadow="2"
     inkscape:window-width="3840"
     inkscape:window-height="2034"
     id="namedview75"
     showgrid="false"
     inkscape:zoom="8.6616334"
     inkscape:cx="53.15915"
     inkscape:cy="86.503484"
     inkscape:window-x="3840"
     inkscape:window-y="60"
     inkscape:window-maximized="1"
     inkscape:current-layer="Layer_1" />
  <defs
     id="defs4">
    <style
       id="style2">.cls-1{fill:#fff;}.cls-2{fill:#2f6cc5;}.cls-3{fill:#002f59;}.cls-4{fill:#2060a7;}.cls-5{fill:#142052;}.cls-6{fill:#175493;}.cls-7{fill:#022f4e;}.cls-8{fill:#0e4c71;}</style>
  </defs>
  <title
     id="title6">app 01</title>
  <g
     id="g111"
     transform="matrix(1.1456742,0,0,1.1286793,-24.39152,-1.121428)">
    <polygon
       style="fill:#2f6cc5"
       transform="matrix(1.5341462,0,0,1.0746759,-29.673868,-13.547917)"
       id="polygon10"
       points="46.02,36.82 79.1,39.02 79.1,31.83 46.02,32.39 "
       class="cls-2" />
    <path
       style="fill:#002f59;stroke-width:1.2840209"
       inkscape:connector-curvature="0"
       id="path12"
       d="M 92.367465,28.891031 40.206494,26.462264 V 20.787976 L 92.367465,20.17541 Z M 41.617907,25.570284 91.002075,27.87009 v -6.727472 l -49.384168,0.580326 z"
       class="cls-3" />
    <polygon
       style="fill:#2060a7"
       transform="matrix(1.5341462,0,0,1.0746759,-29.673868,-13.547917)"
       id="polygon14"
       points="107.7,36.15 79.1,39.02 79.1,31.83 107.7,31.72 "
       class="cls-4" />
    <path
       style="fill:#002f59;stroke-width:1.2840209"
       inkscape:connector-curvature="0"
       id="path16"
       d="m 91.002075,28.912525 v -8.726368 l 45.241965,-0.128961 v 5.663542 z m 1.36539,-7.780653 v 6.727471 l 42.511195,-2.998346 v -3.84734 z"
       class="cls-3" />
    <polygon
       style="fill:#2060a7"
       transform="matrix(1.5341462,0,0,1.0746759,-29.673868,-13.547917)"
       id="polygon18"
       points="79.1,31.83 46.02,32.39 71.89,27.16 83.02,27.16 107.7,31.72 "
       class="cls-4" />
    <path
       style="fill:#002f59;stroke-width:1.2840209"
       inkscape:connector-curvature="0"
       id="path20"
       d="m 40.988908,21.733691 -0.153415,-0.945715 39.76507,-5.620555 h 17.274485 l 37.862732,4.900521 -0.12274,0.945715 -43.891917,0.118215 z m 39.749728,-5.609808 -32.32446,4.567372 43.308947,-0.505098 36.589387,-0.107468 -30.68292,-3.954806 z"
       class="cls-3" />
    <rect
       style="fill:#142052;stroke-width:1.2840209"
       id="rect22"
       height="9.8225374"
       width="9.1588526"
       y="5.8284883"
       x="84.896172"
       class="cls-5" />
    <path
       style="fill:#002f59;stroke-width:1.2840209"
       inkscape:connector-curvature="0"
       id="path24"
       d="M 94.684025,16.123883 H 84.175123 V 5.3771239 h 10.508902 z m -9.204877,-0.956462 h 7.808804 V 6.3013452 h -7.808804 z"
       class="cls-3" />
    <rect
       style="fill:#ffffff;stroke-width:1.2840209"
       id="rect26"
       transform="rotate(90)"
       height="6.4280729"
       width="7.9096146"
       y="-92.689629"
       x="6.7849417"
       class="cls-1" />
    <path
       style="fill:#002f59;stroke-width:1.2840209"
       inkscape:connector-curvature="0"
       id="path28"
       d="M 93.380001,15.167421 H 85.571197 V 6.3013452 h 7.808804 z M 86.936587,14.21096 h 5.078024 V 7.2578067 h -5.001317 z"
       class="cls-3" />
    <path
       style="fill:#2f6cc5;stroke-width:1.2840209"
       inkscape:connector-curvature="0"
       id="path30"
       d="m 95.128927,5.8607281 a 5.7223654,4.0085409 0 0 0 -11.306657,0 z"
       class="cls-2" />
    <path
       style="fill:#002f59;stroke-width:1.2840209"
       inkscape:connector-curvature="0"
       id="path32"
       d="M 95.834635,6.3013452 H 83.116562 V 5.8069943 a 6.3973898,4.4813983 0 0 1 12.656708,0 z M 84.604685,5.3448837 h 9.741828 a 5.1700728,3.6216576 0 0 0 -9.741828,0 z"
       class="cls-3" />
    <polygon
       style="fill:#175493"
       transform="matrix(1.5341462,0,0,1.0746759,-29.673868,-13.547917)"
       id="polygon34"
       points="82.38,51.21 109.06,48.33 102.55,114.83 82.38,131.77 "
       class="cls-6" />
    <polygon
       style="fill:#2f6cc5"
       transform="matrix(1.5341462,0,0,1.0746759,-29.673868,-13.547917)"
       id="polygon36"
       points="45.58,48.33 75.78,51.21 75.78,131.77 52.95,114.83 "
       class="cls-2" />
    <polygon
       style="fill:#2f6cc5"
       transform="matrix(1.5341462,0,0,1.0746759,-29.673868,-13.547917)"
       id="polygon38"
       points="43.55,41.78 79.28,43.98 79.28,36.79 43.55,35.9 "
       class="cls-2" />
    <path
       style="fill:#002f59;stroke-width:1.2840209"
       inkscape:connector-curvature="0"
       id="path40"
       d="M 92.643611,34.221423 H 91.922562 L 36.463176,31.835644 v -7.264809 h 0.690366 l 55.490069,0.977954 z M 37.813225,30.900676 91.278221,33.211229 V 26.451517 L 37.813225,25.516549 Z"
       class="cls-3" />
    <polygon
       style="fill:#2060a7"
       transform="matrix(1.5341462,0,0,1.0746759,-29.673868,-13.547917)"
       id="polygon42"
       points="110.17,41.11 79.28,43.98 79.28,36.79 110.17,35.22 "
       class="cls-4" />
    <path
       style="fill:#002f59;stroke-width:1.2840209"
       inkscape:connector-curvature="0"
       id="path44"
       d="m 91.278221,34.242918 v -8.704875 l 48.755159,-1.740975 v 7.264809 z m 1.36539,-7.802148 v 6.748965 L 138.668,30.191389 V 24.81801 Z"
       class="cls-3" />
    <polygon
       style="fill:#175493"
       transform="matrix(1.5341462,0,0,1.0746759,-29.673868,-13.547917)"
       id="polygon46"
       points="81.16,109.1 81.16,111.8 92.65,105.21 91.53,126.06 93.45,126.06 94.64,104.07 105.61,97.78 105.61,95.09 94.79,101.29 95.45,88.98 107.19,83.76 107.19,81.07 95.6,86.22 96.31,72.98 108.07,69.09 108.07,66.4 96.46,70.24 97.62,48.57 95.69,48.57 94.49,70.89 81.72,75.11 81.72,77.81 94.35,73.63 93.62,87.1 81.72,92.39 81.72,95.09 93.47,89.86 92.8,102.43 "
       class="cls-6" />
    <path
       style="fill:#022f4e;stroke-width:1.2840209"
       inkscape:connector-curvature="0"
       id="path48"
       d="m 114.35178,122.40932 h -4.32629 l 1.68756,-22.04159 -17.550635,7.04986 v -3.99779 l 17.872805,-7.178833 0.95117,-12.466239 -17.980194,5.599061 v -3.987048 l 18.302364,-5.695782 1.02788,-13.476435 -19.330244,4.470652 v -3.901074 l 19.621734,-4.502891 1.85631,-24.115727 h 4.28027 l -1.76426,23.094784 17.76541,-4.116008 v 3.901073 l -18.07225,4.191236 -0.99719,13.121792 17.73473,-5.523834 v 3.954807 l -18.04156,5.620555 -0.92048,12.047117 16.56877,-6.641497 v 4.019287 l -16.87561,6.759712 z m -2.8842,-0.95645 h 1.53415 l 1.79496,-23.449432 16.8756,-6.748966 v -1.79471 l -16.67617,6.673737 1.10459,-14.400656 17.99553,-5.599061 V 74.28534 l -17.84212,5.556073 1.1813,-15.324877 18.01087,-4.180489 v -1.816203 l -17.8728,4.137502 1.81029,-23.481666 h -1.53415 l -1.84097,23.857803 -19.575708,4.535132 v 1.89143 L 115.80922,64.9679 114.62793,80.368005 96.386928,86.05304 v 1.848443 l 18.102922,-5.631302 -1.11992,14.540364 -17.826783,7.168085 v 1.82695 l 17.688703,-7.103602 z"
       class="cls-7" />
    <polygon
       style="fill:#2f6cc5"
       transform="matrix(1.5341462,0,0,1.0746759,-29.673868,-13.547917)"
       id="polygon50"
       points="46.69,69.09 60.01,72.98 60.81,86.22 47.69,81.07 47.69,83.76 60.98,88.98 61.73,101.29 49.49,95.09 49.49,97.78 61.9,104.07 63.24,126.06 65.42,126.06 64.15,105.21 77.15,111.8 77.15,109.1 63.98,102.43 63.22,89.86 76.52,95.09 76.52,92.39 63.05,87.1 62.23,73.63 76.52,77.81 76.52,75.11 62.06,70.89 60.7,48.57 58.52,48.57 59.84,70.24 46.69,66.4 "
       class="cls-2" />
    <path
       style="fill:#0e4c71;stroke-width:1.2840209"
       inkscape:connector-curvature="0"
       id="path52"
       d="m 71.426368,122.40932 h -4.72517 L 64.630101,98.594508 45.591347,91.834796 v -3.976301 l 18.716584,6.641497 -1.04322,-12.090103 -20.45017,-5.620555 V 72.866767 L 62.881174,78.390601 61.745906,65.247316 41.280395,61.066827 v -3.901074 l 20.112658,4.116009 -1.99439,-23.116278 h 4.709828 l 2.10178,24.10498 22.214438,4.545879 v 3.890326 l -21.876925,-4.470652 1.181292,13.487182 20.680292,5.663542 v 3.922567 l -20.34278,-5.588315 1.073903,12.487734 20.235389,7.178833 v 3.96556 L 69.431978,100.2925 Z m -3.436487,-0.95645 h 1.979049 l -1.979049,-22.74015 19.943901,7.10361 v -1.82695 L 67.759759,96.832038 66.486418,82.302422 87.013294,87.933723 V 86.063787 L 66.379028,80.389498 65.059661,64.9679 87.013294,69.438551 V 67.536375 L 64.860223,63.001243 62.819808,39.17568 H 60.84076 l 2.025073,23.460173 -20.220048,-4.137502 v 1.902177 L 63.034588,64.57027 64.369296,79.8844 44.179931,74.328327 v 1.869936 l 20.358121,5.599061 1.242658,14.357669 -18.854657,-6.684484 v 1.826949 l 19.023413,6.748965 z"
       class="cls-8" />
    <path
       style="fill:#ffffff;stroke-width:1.2840209"
       inkscape:connector-curvature="0"
       id="path54"
       d="m 43.305468,40.132141 2.914878,17.194813 13.178317,2.804905 -1.36539,-18.000821 z m 13.623219,10.134194 -1.442098,-0.279416 -0.690365,-7.049874 1.610854,0.214935 z m -6.013853,-1.182144 -1.058561,-6.813445 3.145,0.42987 0.690365,6.93166 z m 2.914878,1.848443 0.690365,6.877925 -2.31656,-0.494352 -1.073903,-6.910165 z m -5.76839,-8.909063 1.043219,6.705977 -2.669415,-0.515845 -1.119926,-6.566269 z m -1.396074,7.52273 2.638732,0.526591 1.073902,6.877926 -2.546682,-0.548084 z m 9.649781,8.661888 -0.690367,-6.910166 1.396074,0.279415 0.52161,6.89942 z"
       class="cls-1" />
    <path
       style="fill:#ffffff;stroke-width:1.2840209"
       inkscape:connector-curvature="0"
       id="path56"
       d="m 68.327393,61.260268 16.446048,3.858087 V 44.699513 L 65.78071,42.679123 Z m 0.613659,-8.414712 3.835366,0.720033 0.84378,7.640946 -3.651268,-0.859741 z m 9.741828,1.848443 0.291488,7.769906 -3.543877,-0.8275 -0.859123,-7.72692 z m -4.264927,-2.084872 -0.889804,-7.866627 4.81722,0.515845 0.291487,8.156789 z m 6.320683,10.273902 -0.276146,-7.855881 2.562025,0.494351 v 7.888121 z m 2.285879,-8.597407 -2.623391,-0.494351 -0.291487,-8.307244 2.930218,0.311656 z m -11.275976,-9.672083 0.874464,7.726919 -3.866048,-0.741525 -0.997196,-7.404517 z"
       class="cls-1" />
    <path
       style="fill:#ffffff;stroke-width:1.2840209"
       inkscape:connector-curvature="0"
       id="path58"
       d="m 121.62363,42.152532 -1.16595,18.03306 11.41405,-2.880131 2.45464,-17.194813 z m 9.77252,6.082664 -1.94838,0.451365 0.87447,-6.684484 2.00973,-0.322403 z m -5.81442,1.354093 0.58297,-6.910166 2.3626,-0.386883 -0.90516,6.824191 z m 1.87166,0.85974 -0.90515,6.888673 -1.65688,0.419123 0.56763,-6.845686 z m -3.06829,-7.52273 -0.59832,7.039126 -0.93583,0.214935 0.46024,-7.082114 z m -1.61085,8.597406 0.90514,-0.214936 -0.58298,6.89942 -0.76707,0.182694 z m 5.58429,5.373379 0.90514,-6.856432 1.94836,-0.451363 -0.98185,6.845685 z"
       class="cls-1" />
    <path
       style="fill:#ffffff;stroke-width:1.2840209"
       inkscape:connector-curvature="0"
       id="path60"
       d="M 99.148391,65.172088 113.26253,61.238775 115.395,42.65763 99.117704,44.721007 Z m 1.733579,-9.672082 1.887,-0.42987 -0.23011,7.834386 -1.64154,0.462111 z m 6.8423,-1.547534 -0.72105,7.705426 -2.7001,0.752274 0.23012,-7.737666 z m -3.0683,-0.580324 0.24547,-8.135297 3.774,-0.472858 -0.75173,7.866628 z m 4.21891,7.780652 0.72105,-7.608705 2.94556,-0.655552 -0.87447,7.522732 z m 3.80468,-9.596855 -2.9609,0.677046 0.73639,-7.694679 3.06829,-0.386883 z m -9.54239,-6.093411 -0.24546,8.307244 -2.0711,0.451363 v -8.468445 z"
       class="cls-1" />
    <path
       style="fill:#2f6cc5;stroke-width:1.2840209"
       inkscape:connector-curvature="0"
       id="path62"
       d="M 33.440908,29.503597 46.46581,111.8775 91.953245,135.52037 V 33.426163 Z M 86.583733,128.04063 51.559175,109.83562 40.252517,38.358925 86.583733,41.453993 Z"
       class="cls-2" />
    <path
       style="fill:#0e4c71;stroke-width:1.2840209"
       inkscape:connector-curvature="0"
       id="path64"
       d="M 92.643611,136.48758 45.821468,112.15692 32.673835,28.987752 92.643611,32.996293 Z M 47.125493,111.64107 91.293562,134.59615 V 33.866781 l -57.070239,-3.8151 z M 87.274099,129.00784 50.914834,110.10428 39.454762,37.853829 87.228074,41.077856 Z m -35.055241,-19.4194 33.751217,17.51721 V 41.916103 L 40.988908,38.917758 Z"
       class="cls-8" />
    <path
       style="fill:#175493;stroke-width:1.2840209"
       inkscape:connector-curvature="0"
       id="path66"
       d="M 91.953245,33.436911 V 135.53111 l 40.194635,-23.64287 11.5061,-82.373897 z M 127.65283,109.85711 96.709101,128.06212 V 41.475486 L 137.64011,38.38042 Z"
       class="cls-6" />
    <path
       style="fill:#002f59;stroke-width:1.2840209"
       inkscape:connector-curvature="0"
       id="path68"
       d="M 91.278221,136.56281 V 33.00704 l 0.598317,-0.05374 52.544512,-3.965554 -11.6135,83.147664 z M 92.643611,33.856034 V 134.52092 l 38.859919,-22.85836 11.39871,-81.600132 z m 3.390463,95.227026 V 41.045616 l 42.373116,-3.224028 -10.09468,72.282692 z m 1.350047,-87.177704 v 85.125074 l 29.624359,-17.42049 9.87991,-70.692182 z"
       class="cls-3" />
    <path
       style="fill:#ffffff;stroke-width:1.2840209"
       inkscape:connector-curvature="0"
       id="path70"
       d="m 69.370613,78.573296 a 1.3960731,0.97795503 0 0 1 -0.859122,-0.182695 1.656878,1.1606499 0 0 1 -0.659683,-1.010195 c 0,-0.988702 -0.122732,-1.794709 -0.337512,-3.009093 -0.21478,-1.214383 -0.230122,-1.837696 0.276147,-2.235326 a 1.5341462,1.0746759 0 0 1 1.150609,-0.322402 v 0.816754 a 0.50626825,0.35464303 0 0 0 -0.260806,0 c -0.168755,0.139707 -0.168755,0.666299 0,1.59052 a 41.421948,29.016248 0 0 1 0.352854,3.084319 0.6903658,0.48360413 0 0 0 0.153415,0.376137 0.52160971,0.36538979 0 0 0 0.368196,0 l 0.352853,0.784514 a 3.0682925,2.1493517 0 0 1 -0.536951,0.107467 z"
       class="cls-1" />
    <path
       style="fill:#ffffff;stroke-width:1.2840209"
       inkscape:connector-curvature="0"
       id="path72"
       d="M 62.022052,77.584594 A 1.4420974,1.0101953 0 0 1 61.147589,77.4019 1.7489267,1.2251305 0 0 1 60.487906,76.327224 42.49585,29.768521 0 0 0 60.165735,73.328878 c -0.21478,-1.139156 -0.230121,-1.837695 0.276147,-2.235325 a 1.4420974,1.0101953 0 0 1 1.150609,-0.322404 v 0.816754 a 0.5676341,0.39763007 0 0 0 -0.276146,0 c -0.168756,0.128961 -0.168756,0.666299 0,1.59052 0.230122,1.246625 0.291488,2.074125 0.352853,3.08432 a 0.72104873,0.50509765 0 0 0 0.153416,0.376136 0.52160971,0.36538979 0 0 0 0.368194,0 l 0.352855,0.773767 a 1.7182438,1.2036369 0 0 1 -0.521611,0.171948 z"
       class="cls-1" />
  </g>
</svg>
