<svg id="Layer_1" data-name="Layer 1" xmlns="http://www.w3.org/2000/svg" xmlns:xlink="http://www.w3.org/1999/xlink" viewBox="0 0 154.11 154.13"><defs><style>.cls-1{fill:url(#linear-gradient);}.cls-2{fill:url(#radial-gradient);}.cls-3{fill:url(#linear-gradient-2);}.cls-4{fill:#fff;}.cls-5{fill:#82b9ff;}.cls-6{fill:url(#linear-gradient-3);}.cls-7{fill:url(#linear-gradient-4);}.cls-8{fill:url(#linear-gradient-5);}.cls-9{fill:url(#linear-gradient-6);}</style><linearGradient id="linear-gradient" x1="456.65" y1="446.53" x2="553.31" y2="560.86" gradientUnits="userSpaceOnUse"><stop offset="0" stop-color="#0071ff"/><stop offset="1" stop-color="#2c389a"/></linearGradient><radialGradient id="radial-gradient" cx="77.4" cy="40.6" r="10.13" gradientUnits="userSpaceOnUse"><stop offset="0" stop-color="#fff"/><stop offset="1" stop-color="#fff" stop-opacity="0.04"/></radialGradient><linearGradient id="linear-gradient-2" x1="512" y1="560.51" x2="512" y2="476.51" gradientUnits="userSpaceOnUse"><stop offset="0" stop-color="#82b9ff"/><stop offset="0.51" stop-color="#82b9ff"/><stop offset="1" stop-color="#fff"/></linearGradient><linearGradient id="linear-gradient-3" x1="69.4" y1="39.92" x2="79.53" y2="39.92" xlink:href="#linear-gradient-2"/><linearGradient id="linear-gradient-4" x1="511.9" y1="555.26" x2="511.9" y2="476.92" xlink:href="#linear-gradient-2"/><linearGradient id="linear-gradient-5" x1="511.9" y1="555.26" x2="511.9" y2="476.92" xlink:href="#linear-gradient-2"/><linearGradient id="linear-gradient-6" x1="511.9" y1="555.26" x2="511.9" y2="476.92" xlink:href="#linear-gradient-2"/></defs><title>app 03</title><path class="cls-1" d="M589.06,464.06v95.88a29.14,29.14,0,0,1-29.12,29.12H464.05a29.15,29.15,0,0,1-29.11-29.12V464.06a29.15,29.15,0,0,1,29.11-29.12h95.89A29.14,29.14,0,0,1,589.06,464.06Z" transform="translate(-434.94 -434.94)"/><circle class="cls-2" cx="76.96" cy="39.92" r="12.07"/><path class="cls-3" d="M540.32,493.49a69.77,69.77,0,0,1-8.63-3.94,53.42,53.42,0,0,1-12.64-9.45H505a53.42,53.42,0,0,1-12.64,9.45,68.45,68.45,0,0,1-8.76,4,84.73,84.73,0,0,1-20.89,4.82c.94,20.1,6.86,38.3,20.89,50.81,7.21,6.44,16.55,11.38,28.45,14.3,15.32-3.76,26.42-10.88,34.14-20.21,10-12,14.4-27.77,15.2-44.9A85.08,85.08,0,0,1,540.32,493.49Z" transform="translate(-434.94 -434.94)"/><path class="cls-4" d="M546.14,500.06v43.2c-7.72,9.33-18.82,16.45-34.14,20.21-11.9-2.92-21.24-7.86-28.45-14.3V489.55h53.28Z" transform="translate(-434.94 -434.94)"/><polygon class="cls-5" points="101.89 65.12 111.19 65.12 101.89 54.62 101.89 65.12"/><rect class="cls-5" x="57.97" y="63.44" width="18.99" height="4.85"/><rect class="cls-5" x="57.97" y="74.84" width="18.99" height="4.85"/><rect class="cls-5" x="57.97" y="91.87" width="43.88" height="4.85"/><rect class="cls-5" x="57.97" y="103.52" width="43.88" height="4.85"/><rect class="cls-6" x="72" y="32.85" width="9.91" height="14.14"/><path class="cls-7" d="M517.59,482.61H506.21V467.1h11.38Zm-9.91-1.37h8.44V468.48h-8.44Z" transform="translate(-434.94 -434.94)"/><path class="cls-8" d="M518,467.79c-.12-2.7-2.81-4.87-6.11-4.87s-6,2.17-6.11,4.87Z" transform="translate(-434.94 -434.94)"/><path class="cls-9" d="M518.78,468.48H505l0-.72c.13-3.1,3.14-5.52,6.85-5.52s6.71,2.42,6.85,5.52Zm-12.15-1.38h10.54c-.49-2-2.66-3.49-5.27-3.49S507.12,465.1,506.63,467.1Z" transform="translate(-434.94 -434.94)"/><rect class="cls-4" x="75.96" y="25.59" width="2" height="4.06"/></svg>